# xmcd CD database file
#
# Track frame offsets:
#	150
#	22302
#	38657
#
# Disc length: 807 seconds
#
# Revision: 0
# Processed by: cddbd v1.5PL3 Copyright (c) Steve Scherf et al.
# Submitted via: CDex 1.50
#
DISCID=1f032503
DTITLE=ROMANS - SEXY NIGHT 〜忘れられない彼〜
DYEAR=2003
DGENRE=JPop
TTITLE0=SEXY NIGHT 〜忘れられない彼〜
TTITLE1=ロマン
TTITLE2=SEXY NIGHT 〜忘れられない彼〜(Instrumental)
EXTD=YEAR: 2003
EXTT0=
EXTT1=
EXTT2=
PLAYORDER=
